# xmcd
#
# Track frame offsets:
#	150
#	15629
#	33628
#	52736
#	69718
#	85588
#	105783
#	120384
#	136581
#	154474
#	180490
#	202432
#
# Disc length: 2940 seconds
#
# Revision: 0
# Processed by: cddbd v1.5.1PL2 Copyright (c) Steve Scherf et al.
# Submitted via: dBpowerAMP V4.0
#
DISCID=950b7a0c
DTITLE=Cass - Come Here
DYEAR=2005
DGENRE=Easy Listening
TTITLE0=Out Of My Reach
TTITLE1=Million Dollars
TTITLE2=Save Me
TTITLE3=Daddy Dear
TTITLE4=Come Here
TTITLE5=Strangers
TTITLE6=Live A Little
TTITLE7=Army Of One
TTITLE8=God Likes Good Lovers
TTITLE9=Little Bird
TTITLE10=Into The Blue
TTITLE11=Touch Me (Acoustic)
EXTD=
EXTT0=
EXTT1=
EXTT2=
EXTT3=
EXTT4=
EXTT5=
EXTT6=
EXTT7=
EXTT8=
EXTT9=
EXTT10=
EXTT11=
PLAYORDER=
